# Blender v2.93.4 OBJ File: ''
# www.blender.org
mtllib interior_decor_globe.mtl
o Object_28_Object_12
v 3.750000 -7.803585 3.750001
v 3.750000 -9.303586 3.750001
v 3.750000 -7.803585 -3.750001
v 3.750000 -9.303586 -3.750001
v -3.750000 -7.803585 -3.750001
v -3.750000 -9.303586 -3.750001
v -3.750000 -7.803585 3.750001
v -3.750000 -9.303586 3.750001
v -3.750000 -7.803585 -3.750001
v -3.750000 -7.803585 3.750001
v 3.750000 -7.803585 -3.750001
v 3.750000 -7.803585 3.750001
v -3.750000 -9.303586 3.750001
v -3.750000 -9.303586 -3.750001
v 3.750000 -9.303586 3.750001
v 3.750000 -9.303586 -3.750001
v -3.750000 -7.803585 3.750001
v -3.750000 -9.303586 3.750001
v 3.750000 -7.803585 3.750001
v 3.750000 -9.303586 3.750001
v 3.750000 -7.803585 -3.750001
v 3.750000 -9.303586 -3.750001
v -3.750000 -7.803585 -3.750001
v -3.750000 -9.303586 -3.750001
v 2.690414 6.507418 3.900001
v 5.675345 -0.698844 3.900001
v 2.690414 6.507418 -3.900001
v 5.675345 -0.698844 -3.900001
v -4.515846 3.522486 -3.900001
v -1.530915 -3.683774 -3.900001
v -4.515846 3.522486 3.900001
v -1.530915 -3.683775 3.900001
v -4.515846 3.522486 -3.900001
v -4.515846 3.522486 3.900001
v 2.690414 6.507418 -3.900001
v 2.690414 6.507418 3.900001
v -1.530915 -3.683775 3.900001
v -1.530915 -3.683774 -3.900001
v 5.675345 -0.698844 3.900001
v 5.675345 -0.698844 -3.900001
v -4.515846 3.522486 3.900001
v -1.530915 -3.683775 3.900001
v 2.690414 6.507418 3.900001
v 5.675345 -0.698844 3.900001
v 2.690414 6.507418 -3.900001
v 5.675345 -0.698844 -3.900001
v -4.515846 3.522486 -3.900001
v -1.530915 -3.683774 -3.900001
v -3.986032 5.794255 0.240000
v -5.899448 1.174856 0.240000
v -3.986032 5.794255 -0.240000
v -5.899448 1.174856 -0.240000
v -4.909911 6.176939 -0.240000
v -6.823328 1.557540 -0.240000
v -4.909911 6.176939 0.240000
v -6.823328 1.557540 0.240000
v -4.909911 6.176939 -0.240000
v -4.909911 6.176939 0.240000
v -3.986032 5.794255 -0.240000
v -3.986032 5.794255 0.240000
v -6.823328 1.557540 0.240000
v -6.823328 1.557540 -0.240000
v -5.899448 1.174856 0.240000
v -5.899448 1.174856 -0.240000
v -4.909911 6.176939 0.240000
v -6.823328 1.557540 0.240000
v -3.986032 5.794255 0.240000
v -5.899448 1.174856 0.240000
v -3.986032 5.794255 -0.240000
v -5.899448 1.174856 -0.240000
v -4.909911 6.176939 -0.240000
v -6.823328 1.557540 -0.240000
v -2.369633 7.225698 0.250000
v -1.891279 6.070848 0.250000
v -2.369633 7.225698 -0.250000
v -1.891279 6.070848 -0.250000
v -4.910301 6.173318 -0.250000
v -4.431948 5.018468 -0.250000
v -4.910301 6.173318 0.250000
v -4.431948 5.018468 0.250000
v -4.910301 6.173318 -0.250000
v -4.910301 6.173318 0.250000
v -2.369633 7.225698 -0.250000
v -2.369633 7.225698 0.250000
v -4.431948 5.018468 0.250000
v -4.431948 5.018468 -0.250000
v -1.891279 6.070848 0.250000
v -1.891279 6.070848 -0.250000
v -4.910301 6.173318 0.250000
v -4.431948 5.018468 0.250000
v -2.369633 7.225698 0.250000
v -1.891279 6.070848 0.250000
v -2.369633 7.225698 -0.250000
v -1.891279 6.070848 -0.250000
v -4.910301 6.173318 -0.250000
v -4.431948 5.018468 -0.250000
v -5.670317 2.032110 0.250000
v -3.404830 -3.437258 0.250000
v -5.670317 2.032110 -0.250000
v -3.404830 -3.437258 -0.250000
v -6.825167 1.553756 -0.250000
v -4.559680 -3.915612 -0.250000
v -6.825167 1.553756 0.250000
v -4.559680 -3.915612 0.250000
v -6.825167 1.553756 -0.250000
v -6.825167 1.553756 0.250000
v -5.670317 2.032110 -0.250000
v -5.670317 2.032110 0.250000
v -4.559680 -3.915612 0.250000
v -4.559680 -3.915612 -0.250000
v -3.404830 -3.437258 0.250000
v -3.404830 -3.437258 -0.250000
v -6.825167 1.553756 0.250000
v -4.559680 -3.915612 0.250000
v -5.670317 2.032110 0.250000
v -3.404830 -3.437258 0.250000
v -5.670317 2.032110 -0.250000
v -3.404830 -3.437258 -0.250000
v -6.825167 1.553756 -0.250000
v -4.559680 -3.915612 -0.250000
v 0.452392 -4.910967 0.240000
v 0.069709 -5.834846 0.240000
v 0.452392 -4.910967 -0.240000
v 0.069709 -5.834846 -0.240000
v -4.176244 -2.993723 -0.240000
v -4.558928 -3.917603 -0.240000
v -4.176244 -2.993723 0.240000
v -4.558928 -3.917603 0.240000
v -4.176244 -2.993723 -0.240000
v -4.176244 -2.993723 0.240000
v 0.452392 -4.910967 -0.240000
v 0.452392 -4.910967 0.240000
v -4.558928 -3.917603 0.240000
v -4.558928 -3.917603 -0.240000
v 0.069709 -5.834846 0.240000
v 0.069709 -5.834846 -0.240000
v -4.176244 -2.993723 0.240000
v -4.558928 -3.917603 0.240000
v 0.452392 -4.910967 0.240000
v 0.069709 -5.834846 0.240000
v 0.452392 -4.910967 -0.240000
v 0.069709 -5.834846 -0.240000
v -4.176244 -2.993723 -0.240000
v -4.558928 -3.917603 -0.240000
v 2.126897 -3.629889 0.250000
v 2.605252 -4.784738 0.250000
v 2.126897 -3.629889 -0.250000
v 2.605252 -4.784738 -0.250000
v -0.413771 -4.682269 -0.250000
v 0.064583 -5.837118 -0.250000
v -0.413771 -4.682269 0.250000
v 0.064583 -5.837118 0.250000
v -0.413771 -4.682269 -0.250000
v -0.413771 -4.682269 0.250000
v 2.126897 -3.629889 -0.250000
v 2.126897 -3.629889 0.250000
v 0.064583 -5.837118 0.250000
v 0.064583 -5.837118 -0.250000
v 2.605252 -4.784738 0.250000
v 2.605252 -4.784738 -0.250000
v -0.413771 -4.682269 0.250000
v 0.064583 -5.837118 0.250000
v 2.126897 -3.629889 0.250000
v 2.605252 -4.784738 0.250000
v 2.126897 -3.629889 -0.250000
v 2.605252 -4.784738 -0.250000
v -0.413771 -4.682269 -0.250000
v 0.064583 -5.837118 -0.250000
v -1.541425 7.839351 0.500000
v -0.871729 6.222562 0.500000
v -1.541425 7.839351 -0.500000
v -0.871729 6.222562 -0.500000
v -2.465304 7.456668 -0.500000
v -1.795608 5.839879 -0.500000
v -2.465304 7.456668 0.500000
v -1.795608 5.839879 0.500000
v -2.465304 7.456668 -0.500000
v -2.465304 7.456668 0.500000
v -1.541425 7.839351 -0.500000
v -1.541425 7.839351 0.500000
v -1.795608 5.839879 0.500000
v -1.795608 5.839879 -0.500000
v -0.871729 6.222562 0.500000
v -0.871729 6.222562 -0.500000
v -2.465304 7.456668 0.500000
v -1.795608 5.839879 0.500000
v -1.541425 7.839351 0.500000
v -0.871729 6.222562 0.500000
v -1.541425 7.839351 -0.500000
v -0.871729 6.222562 -0.500000
v -2.465304 7.456668 -0.500000
v -1.795608 5.839879 -0.500000
v 2.955106 -3.016235 0.500000
v 3.624802 -4.633024 0.500000
v 2.955106 -3.016235 -0.500000
v 3.624802 -4.633024 -0.500000
v 2.031226 -3.398919 -0.500000
v 2.700922 -5.015708 -0.500000
v 2.031226 -3.398919 0.500000
v 2.700922 -5.015708 0.500000
v 2.031226 -3.398919 -0.500000
v 2.031226 -3.398919 0.500000
v 2.955106 -3.016235 -0.500000
v 2.955106 -3.016235 0.500000
v 2.700922 -5.015708 0.500000
v 2.700922 -5.015708 -0.500000
v 3.624802 -4.633024 0.500000
v 3.624802 -4.633024 -0.500000
v 2.031226 -3.398919 0.500000
v 2.700922 -5.015708 0.500000
v 2.955106 -3.016235 0.500000
v 3.624802 -4.633024 0.500000
v 2.955106 -3.016235 -0.500000
v 3.624802 -4.633024 -0.500000
v 2.031226 -3.398919 -0.500000
v 2.700922 -5.015708 -0.500000
v -1.102698 6.126892 0.250000
v 2.724136 -3.111906 0.250000
v -1.102698 6.126892 -0.250000
v 2.724136 -3.111906 -0.250000
v -1.564638 5.935549 -0.250000
v 2.262196 -3.303248 -0.250000
v -1.564638 5.935549 0.250000
v 2.262196 -3.303248 0.250000
v -1.564638 5.935549 -0.250000
v -1.564638 5.935549 0.250000
v -1.102698 6.126892 -0.250000
v -1.102698 6.126892 0.250000
v 2.262196 -3.303248 0.250000
v 2.262196 -3.303248 -0.250000
v 2.724136 -3.111906 0.250000
v 2.724136 -3.111906 -0.250000
v -1.564638 5.935549 0.250000
v 2.262196 -3.303248 0.250000
v -1.102698 6.126892 0.250000
v 2.724136 -3.111906 0.250000
v -1.102698 6.126892 -0.250000
v 2.724136 -3.111906 -0.250000
v -1.564638 5.935549 -0.250000
v 2.262196 -3.303248 -0.250000
v 2.744533 6.638074 4.000001
v 5.806001 -0.752964 4.000001
v 2.744533 6.638074 -4.000000
v 5.806001 -0.752964 -4.000001
v -4.646503 3.576606 -4.000001
v -1.585035 -3.814432 -4.000001
v -4.646503 3.576606 4.000001
v -1.585035 -3.814432 4.000001
v -4.646503 3.576606 -4.000001
v -4.646503 3.576606 4.000001
v 2.744533 6.638074 -4.000000
v 2.744533 6.638074 4.000001
v -1.585035 -3.814432 4.000001
v -1.585035 -3.814432 -4.000001
v 5.806001 -0.752964 4.000001
v 5.806001 -0.752964 -4.000001
v -4.646503 3.576606 4.000001
v -1.585035 -3.814432 4.000001
v 2.744533 6.638074 4.000001
v 5.806001 -0.752964 4.000001
v 2.744533 6.638074 -4.000000
v 5.806001 -0.752964 -4.000001
v -4.646503 3.576606 -4.000001
v -1.585035 -3.814432 -4.000001
v 0.500000 -5.053585 0.500000
v 0.500000 -6.803585 0.500000
v 0.500000 -5.053585 -0.500000
v 0.500000 -6.803585 -0.500000
v -0.500000 -5.053585 -0.500000
v -0.500000 -6.803585 -0.500000
v -0.500000 -5.053585 0.500000
v -0.500000 -6.803585 0.500000
v -0.500000 -5.053585 -0.500000
v -0.500000 -5.053585 0.500000
v 0.500000 -5.053585 -0.500000
v 0.500000 -5.053585 0.500000
v -0.500000 -6.803585 0.500000
v -0.500000 -6.803585 -0.500000
v 0.500000 -6.803585 0.500000
v 0.500000 -6.803585 -0.500000
v -0.500000 -5.053585 0.500000
v -0.500000 -6.803585 0.500000
v 0.500000 -5.053585 0.500000
v 0.500000 -6.803585 0.500000
v 0.500000 -5.053585 -0.500000
v 0.500000 -6.803585 -0.500000
v -0.500000 -5.053585 -0.500000
v -0.500000 -6.803585 -0.500000
v 3.000000 -6.803585 3.000001
v 3.000000 -7.803585 3.000001
v 3.000000 -6.803585 -3.000001
v 3.000000 -7.803585 -3.000001
v -3.000000 -6.803585 -3.000001
v -3.000000 -7.803585 -3.000001
v -3.000000 -6.803585 3.000001
v -3.000000 -7.803585 3.000001
v -3.000000 -6.803585 -3.000001
v -3.000000 -6.803585 3.000001
v 3.000000 -6.803585 -3.000001
v 3.000000 -6.803585 3.000001
v -3.000000 -7.803585 3.000001
v -3.000000 -7.803585 -3.000001
v 3.000000 -7.803585 3.000001
v 3.000000 -7.803585 -3.000001
v -3.000000 -6.803585 3.000001
v -3.000000 -7.803585 3.000001
v 3.000000 -6.803585 3.000001
v 3.000000 -7.803585 3.000001
v 3.000000 -6.803585 -3.000001
v 3.000000 -7.803585 -3.000001
v -3.000000 -6.803585 -3.000001
v -3.000000 -7.803585 -3.000001
vt 0.000000 0.000000
vt 0.000000 0.125000
vt 0.750000 0.000000
vt 0.750000 0.125000
vt 0.000000 0.000000
vt 0.000000 0.125000
vt 0.750000 0.000000
vt 0.750000 0.125000
vt 0.000000 0.218750
vt 0.000000 0.781250
vt 0.562500 0.218750
vt 0.562500 0.781250
vt 0.250000 0.468750
vt 0.250000 0.500000
vt 0.281250 0.468750
vt 0.281250 0.500000
vt 0.000000 0.000000
vt 0.000000 0.125000
vt 0.750000 0.000000
vt 0.750000 0.125000
vt 0.000000 0.000000
vt 0.000000 0.125000
vt 0.750000 0.000000
vt 0.750000 0.125000
vt 0.656250 0.281250
vt 0.656250 0.406250
vt 0.781250 0.281250
vt 0.781250 0.406250
vt 0.656250 0.281250
vt 0.656250 0.406250
vt 0.781250 0.281250
vt 0.781250 0.406250
vt 0.656250 0.281250
vt 0.656250 0.406250
vt 0.781250 0.281250
vt 0.781250 0.406250
vt 0.656250 0.281250
vt 0.656250 0.406250
vt 0.781250 0.281250
vt 0.781250 0.406250
vt 0.656250 0.281250
vt 0.656250 0.406250
vt 0.781250 0.281250
vt 0.781250 0.406250
vt 0.656250 0.281250
vt 0.656250 0.406250
vt 0.781250 0.281250
vt 0.781250 0.406250
vt 0.000000 0.906250
vt 0.000000 0.937500
vt 0.031250 0.906250
vt 0.031250 0.937500
vt 0.562500 0.875000
vt 1.000000 0.875000
vt 0.562500 0.906250
vt 1.000000 0.906250
vt 0.250000 0.468750
vt 0.250000 0.500000
vt 0.281250 0.468750
vt 0.281250 0.500000
vt 0.250000 0.468750
vt 0.250000 0.500000
vt 0.281250 0.468750
vt 0.281250 0.500000
vt 0.562500 0.875000
vt 1.000000 0.875000
vt 0.562500 1.000000
vt 1.000000 1.000000
vt 0.562500 1.000000
vt 1.000000 1.000000
vt 0.562500 0.875000
vt 1.000000 0.875000
vt 0.250000 0.468750
vt 0.250000 0.500000
vt 0.281250 0.468750
vt 0.281250 0.500000
vt 0.250000 0.468750
vt 0.250000 0.500000
vt 0.281250 0.468750
vt 0.281250 0.500000
vt 0.000000 0.781250
vt 0.000000 0.812500
vt 0.281250 0.781250
vt 0.281250 0.812500
vt 0.000000 0.906250
vt 0.000000 0.937500
vt 0.031250 0.906250
vt 0.031250 0.937500
vt 0.000000 0.781250
vt 0.000000 0.937500
vt 0.281250 0.781250
vt 0.281250 0.937500
vt 0.000000 0.781250
vt 0.000000 0.937500
vt 0.281250 0.781250
vt 0.281250 0.937500
vt 0.000000 0.906250
vt 0.000000 0.937500
vt 0.031250 0.906250
vt 0.031250 0.937500
vt 0.562500 0.875000
vt 0.562500 0.906250
vt 0.593750 0.875000
vt 0.593750 0.906250
vt 0.250000 0.468750
vt 0.250000 0.500000
vt 0.281250 0.468750
vt 0.281250 0.500000
vt 0.250000 0.468750
vt 0.250000 0.500000
vt 0.281250 0.468750
vt 0.281250 0.500000
vt 0.000000 0.781250
vt 0.562500 0.781250
vt 0.000000 0.937500
vt 0.562500 0.937500
vt 0.000000 0.937500
vt 0.562500 0.937500
vt 0.000000 0.781250
vt 0.562500 0.781250
vt 0.250000 0.468750
vt 0.250000 0.500000
vt 0.281250 0.468750
vt 0.281250 0.500000
vt 0.250000 0.468750
vt 0.250000 0.500000
vt 0.281250 0.468750
vt 0.281250 0.500000
vt 0.000000 0.906250
vt 0.000000 0.937500
vt 0.031250 0.906250
vt 0.031250 0.937500
vt 0.562500 0.875000
vt 0.562500 0.906250
vt 0.593750 0.875000
vt 0.593750 0.906250
vt 0.562500 1.000000
vt 0.562500 0.875000
vt 1.000000 1.000000
vt 1.000000 0.875000
vt 0.562500 1.000000
vt 0.562500 0.875000
vt 1.000000 1.000000
vt 1.000000 0.875000
vt 0.250000 0.468750
vt 0.250000 0.500000
vt 0.281250 0.468750
vt 0.281250 0.500000
vt 0.250000 0.468750
vt 0.250000 0.500000
vt 0.281250 0.468750
vt 0.281250 0.500000
vt 0.000000 0.906250
vt 0.000000 0.937500
vt 0.031250 0.906250
vt 0.031250 0.937500
vt 0.000000 0.781250
vt 0.000000 0.812500
vt 0.281250 0.781250
vt 0.281250 0.812500
vt 0.000000 0.937500
vt 0.000000 0.781250
vt 0.281250 0.937500
vt 0.281250 0.781250
vt 0.000000 0.937500
vt 0.000000 0.781250
vt 0.281250 0.937500
vt 0.281250 0.781250
vt 0.875000 0.187500
vt 0.875000 0.375000
vt 1.000000 0.187500
vt 1.000000 0.375000
vt 0.875000 0.000000
vt 0.875000 0.187500
vt 1.000000 0.000000
vt 1.000000 0.187500
vt 0.562500 0.125000
vt 0.562500 0.218750
vt 0.656250 0.125000
vt 0.656250 0.218750
vt 0.562500 0.125000
vt 0.562500 0.218750
vt 0.656250 0.125000
vt 0.656250 0.218750
vt 0.875000 0.000000
vt 0.875000 0.187500
vt 1.000000 0.000000
vt 1.000000 0.187500
vt 0.875000 0.187500
vt 0.875000 0.375000
vt 1.000000 0.187500
vt 1.000000 0.375000
vt 0.875000 0.000000
vt 0.875000 0.187500
vt 1.000000 0.000000
vt 1.000000 0.187500
vt 0.875000 0.000000
vt 0.875000 0.187500
vt 1.000000 0.000000
vt 1.000000 0.187500
vt 0.562500 0.125000
vt 0.562500 0.218750
vt 0.656250 0.125000
vt 0.656250 0.218750
vt 0.562500 0.125000
vt 0.562500 0.218750
vt 0.656250 0.125000
vt 0.656250 0.218750
vt 0.875000 0.000000
vt 0.875000 0.187500
vt 1.000000 0.000000
vt 1.000000 0.187500
vt 0.875000 0.000000
vt 0.875000 0.187500
vt 1.000000 0.000000
vt 1.000000 0.187500
vt 0.000000 0.000000
vt 0.000000 0.312500
vt 0.062500 0.000000
vt 0.062500 0.312500
vt 0.000000 0.000000
vt 0.000000 0.312500
vt 0.062500 0.000000
vt 0.062500 0.312500
vt 0.250000 0.468750
vt 0.250000 0.500000
vt 0.281250 0.468750
vt 0.281250 0.500000
vt 0.250000 0.468750
vt 0.250000 0.500000
vt 0.281250 0.468750
vt 0.281250 0.500000
vt 0.000000 0.000000
vt 0.000000 0.312500
vt 0.062500 0.000000
vt 0.062500 0.312500
vt 0.000000 0.000000
vt 0.000000 0.312500
vt 0.062500 0.000000
vt 0.062500 0.312500
vt 0.625000 0.437500
vt 0.625000 0.812500
vt 1.000000 0.437500
vt 1.000000 0.812500
vt 0.625000 0.437500
vt 0.625000 0.812500
vt 1.000000 0.437500
vt 1.000000 0.812500
vt 0.625000 0.437500
vt 0.625000 0.812500
vt 1.000000 0.437500
vt 1.000000 0.812500
vt 0.625000 0.437500
vt 0.625000 0.812500
vt 1.000000 0.437500
vt 1.000000 0.812500
vt 0.625000 0.437500
vt 0.625000 0.812500
vt 1.000000 0.437500
vt 1.000000 0.812500
vt 0.625000 0.437500
vt 0.625000 0.812500
vt 1.000000 0.437500
vt 1.000000 0.812500
vt 0.750000 0.000000
vt 0.750000 0.125000
vt 0.875000 0.000000
vt 0.875000 0.125000
vt 0.750000 0.000000
vt 0.750000 0.125000
vt 0.875000 0.000000
vt 0.875000 0.125000
vt 0.250000 0.468750
vt 0.250000 0.500000
vt 0.281250 0.468750
vt 0.281250 0.500000
vt 0.250000 0.468750
vt 0.250000 0.500000
vt 0.281250 0.468750
vt 0.281250 0.500000
vt 0.750000 0.000000
vt 0.750000 0.125000
vt 0.875000 0.000000
vt 0.875000 0.125000
vt 0.750000 0.000000
vt 0.750000 0.125000
vt 0.875000 0.000000
vt 0.875000 0.125000
vt 0.000000 0.125000
vt 0.000000 0.218750
vt 0.562500 0.125000
vt 0.562500 0.218750
vt 0.000000 0.125000
vt 0.000000 0.218750
vt 0.562500 0.125000
vt 0.562500 0.218750
vt 0.000000 0.218750
vt 0.000000 0.781250
vt 0.562500 0.218750
vt 0.562500 0.781250
vt 0.250000 0.468750
vt 0.250000 0.500000
vt 0.281250 0.468750
vt 0.281250 0.500000
vt 0.000000 0.125000
vt 0.000000 0.218750
vt 0.562500 0.125000
vt 0.562500 0.218750
vt 0.000000 0.125000
vt 0.000000 0.218750
vt 0.562500 0.125000
vt 0.562500 0.218750
vn 1.0000 0.0000 0.0000
vn -1.0000 0.0000 0.0000
vn 0.0000 1.0000 0.0000
vn 0.0000 -1.0000 0.0000
vn 0.0000 0.0000 1.0000
vn 0.0000 0.0000 -1.0000
vn 0.9239 0.3827 0.0000
vn -0.9239 -0.3827 0.0000
vn -0.3827 0.9239 0.0000
vn 0.3827 -0.9239 -0.0000
vn 0.9239 -0.3827 0.0000
vn -0.9239 0.3827 0.0000
vn 0.3827 0.9239 0.0000
vn -0.3827 -0.9239 0.0000
g Object_28_Object_12_Object_28_Object_12_globe.png
usemtl globe.png
s 1
f 1/1/1 2/2/1 3/3/1
f 2/2/1 4/4/1 3/3/1
f 5/5/2 6/6/2 7/7/2
f 6/6/2 8/8/2 7/7/2
f 9/9/3 10/10/3 11/11/3
f 10/10/3 12/12/3 11/11/3
f 13/13/4 14/14/4 15/15/4
f 14/14/4 16/16/4 15/15/4
f 17/17/5 18/18/5 19/19/5
f 18/18/5 20/20/5 19/19/5
f 21/21/6 22/22/6 23/23/6
f 22/22/6 24/24/6 23/23/6
f 25/25/7 26/26/7 27/27/7
f 26/26/7 28/28/7 27/27/7
f 29/29/8 30/30/8 31/31/8
f 30/30/8 32/32/8 31/31/8
f 33/33/9 34/34/9 35/35/9
f 34/34/9 36/36/9 35/35/9
f 37/37/10 38/38/10 39/39/10
f 38/38/10 40/40/10 39/39/10
f 41/41/5 42/42/5 43/43/5
f 42/42/5 44/44/5 43/43/5
f 45/45/6 46/46/6 47/47/6
f 46/46/6 48/48/6 47/47/6
f 49/49/11 50/50/11 51/51/11
f 50/50/11 52/52/11 51/51/11
f 53/53/12 54/54/12 55/55/12
f 54/54/12 56/56/12 55/55/12
f 57/57/13 58/58/13 59/59/13
f 58/58/13 60/60/13 59/59/13
f 61/61/14 62/62/14 63/63/14
f 62/62/14 64/64/14 63/63/14
f 65/65/5 66/66/5 67/67/5
f 66/66/5 68/68/5 67/67/5
f 69/69/6 70/70/6 71/71/6
f 70/70/6 72/72/6 71/71/6
f 73/73/7 74/74/7 75/75/7
f 74/74/7 76/76/7 75/75/7
f 77/77/8 78/78/8 79/79/8
f 78/78/8 80/80/8 79/79/8
f 81/81/9 82/82/9 83/83/9
f 82/82/9 84/84/9 83/83/9
f 85/85/10 86/86/10 87/87/10
f 86/86/10 88/88/10 87/87/10
f 89/89/5 90/90/5 91/91/5
f 90/90/5 92/92/5 91/91/5
f 93/93/6 94/94/6 95/95/6
f 94/94/6 96/96/6 95/95/6
f 97/97/7 98/98/7 99/99/7
f 98/98/7 100/100/7 99/99/7
f 101/101/8 102/102/8 103/103/8
f 102/102/8 104/104/8 103/103/8
f 105/105/9 106/106/9 107/107/9
f 106/106/9 108/108/9 107/107/9
f 109/109/10 110/110/10 111/111/10
f 110/110/10 112/112/10 111/111/10
f 113/113/5 114/114/5 115/115/5
f 114/114/5 116/116/5 115/115/5
f 117/117/6 118/118/6 119/119/6
f 118/118/6 120/120/6 119/119/6
f 121/121/11 122/122/11 123/123/11
f 122/122/11 124/124/11 123/123/11
f 125/125/12 126/126/12 127/127/12
f 126/126/12 128/128/12 127/127/12
f 129/129/13 130/130/13 131/131/13
f 130/130/13 132/132/13 131/131/13
f 133/133/14 134/134/14 135/135/14
f 134/134/14 136/136/14 135/135/14
f 137/137/5 138/138/5 139/139/5
f 138/138/5 140/140/5 139/139/5
f 141/141/6 142/142/6 143/143/6
f 142/142/6 144/144/6 143/143/6
f 145/145/7 146/146/7 147/147/7
f 146/146/7 148/148/7 147/147/7
f 149/149/8 150/150/8 151/151/8
f 150/150/8 152/152/8 151/151/8
f 153/153/9 154/154/9 155/155/9
f 154/154/9 156/156/9 155/155/9
f 157/157/10 158/158/10 159/159/10
f 158/158/10 160/160/10 159/159/10
f 161/161/5 162/162/5 163/163/5
f 162/162/5 164/164/5 163/163/5
f 165/165/6 166/166/6 167/167/6
f 166/166/6 168/168/6 167/167/6
f 169/169/7 170/170/7 171/171/7
f 170/170/7 172/172/7 171/171/7
f 173/173/8 174/174/8 175/175/8
f 174/174/8 176/176/8 175/175/8
f 177/177/9 178/178/9 179/179/9
f 178/178/9 180/180/9 179/179/9
f 181/181/10 182/182/10 183/183/10
f 182/182/10 184/184/10 183/183/10
f 185/185/5 186/186/5 187/187/5
f 186/186/5 188/188/5 187/187/5
f 189/189/6 190/190/6 191/191/6
f 190/190/6 192/192/6 191/191/6
f 193/193/7 194/194/7 195/195/7
f 194/194/7 196/196/7 195/195/7
f 197/197/8 198/198/8 199/199/8
f 198/198/8 200/200/8 199/199/8
f 201/201/9 202/202/9 203/203/9
f 202/202/9 204/204/9 203/203/9
f 205/205/10 206/206/10 207/207/10
f 206/206/10 208/208/10 207/207/10
f 209/209/5 210/210/5 211/211/5
f 210/210/5 212/212/5 211/211/5
f 213/213/6 214/214/6 215/215/6
f 214/214/6 216/216/6 215/215/6
f 217/217/7 218/218/7 219/219/7
f 218/218/7 220/220/7 219/219/7
f 221/221/8 222/222/8 223/223/8
f 222/222/8 224/224/8 223/223/8
f 225/225/9 226/226/9 227/227/9
f 226/226/9 228/228/9 227/227/9
f 229/229/10 230/230/10 231/231/10
f 230/230/10 232/232/10 231/231/10
f 233/233/5 234/234/5 235/235/5
f 234/234/5 236/236/5 235/235/5
f 237/237/6 238/238/6 239/239/6
f 238/238/6 240/240/6 239/239/6
f 241/241/7 242/242/7 243/243/7
f 242/242/7 244/244/7 243/243/7
f 245/245/8 246/246/8 247/247/8
f 246/246/8 248/248/8 247/247/8
f 249/249/9 250/250/9 251/251/9
f 250/250/9 252/252/9 251/251/9
f 253/253/10 254/254/10 255/255/10
f 254/254/10 256/256/10 255/255/10
f 257/257/5 258/258/5 259/259/5
f 258/258/5 260/260/5 259/259/5
f 261/261/6 262/262/6 263/263/6
f 262/262/6 264/264/6 263/263/6
f 265/265/1 266/266/1 267/267/1
f 266/266/1 268/268/1 267/267/1
f 269/269/2 270/270/2 271/271/2
f 270/270/2 272/272/2 271/271/2
f 273/273/3 274/274/3 275/275/3
f 274/274/3 276/276/3 275/275/3
f 277/277/4 278/278/4 279/279/4
f 278/278/4 280/280/4 279/279/4
f 281/281/5 282/282/5 283/283/5
f 282/282/5 284/284/5 283/283/5
f 285/285/6 286/286/6 287/287/6
f 286/286/6 288/288/6 287/287/6
f 289/289/1 290/290/1 291/291/1
f 290/290/1 292/292/1 291/291/1
f 293/293/2 294/294/2 295/295/2
f 294/294/2 296/296/2 295/295/2
f 297/297/3 298/298/3 299/299/3
f 298/298/3 300/300/3 299/299/3
f 301/301/4 302/302/4 303/303/4
f 302/302/4 304/304/4 303/303/4
f 305/305/5 306/306/5 307/307/5
f 306/306/5 308/308/5 307/307/5
f 309/309/6 310/310/6 311/311/6
f 310/310/6 312/312/6 311/311/6
