# Blender v2.93.3 OBJ File: ''
# www.blender.org
mtllib interior_decor_gramophone.mtl
o Object_30_Object_15
v 6.000000 -6.500001 6.000001
v 6.000000 -8.000002 6.000001
v 6.000000 -6.500001 -6.000002
v 6.000000 -8.000002 -6.000002
v -6.000000 -6.500001 -6.000002
v -6.000000 -8.000002 -6.000002
v -6.000000 -6.500001 6.000001
v -6.000000 -8.000002 6.000001
v -6.000000 -8.000002 6.000001
v -6.000000 -8.000002 -6.000002
v 6.000000 -8.000002 6.000001
v 6.000000 -8.000002 -6.000002
v -6.000000 -6.500001 6.000001
v -6.000000 -8.000002 6.000001
v 6.000000 -6.500001 6.000001
v 6.000000 -8.000002 6.000001
v 6.000000 -6.500001 -6.000002
v 6.000000 -8.000002 -6.000002
v -6.000000 -6.500001 -6.000002
v -6.000000 -8.000002 -6.000002
v 5.000000 -3.000001 5.000000
v 5.000000 -6.500001 5.000000
v 5.000000 -3.000001 -5.000003
v 5.000000 -6.500001 -5.000003
v -5.000000 -3.000001 -5.000003
v -5.000000 -6.500001 -5.000003
v -5.000000 -3.000001 5.000000
v -5.000000 -6.500001 5.000000
v -5.000000 -3.000001 -5.000003
v -5.000000 -3.000001 5.000000
v 5.000000 -3.000001 -5.000003
v 5.000000 -3.000001 5.000000
v -5.000000 -6.500001 5.000000
v -5.000000 -6.500001 -5.000003
v 5.000000 -6.500001 5.000000
v 5.000000 -6.500001 -5.000003
v -5.000000 -3.000001 5.000000
v -5.000000 -6.500001 5.000000
v 5.000000 -3.000001 5.000000
v 5.000000 -6.500001 5.000000
v 5.000000 -3.000001 -5.000003
v 5.000000 -6.500001 -5.000003
v -5.000000 -3.000001 -5.000003
v -5.000000 -6.500001 -5.000003
v 2.600000 3.991597 3.336425
v 2.600000 3.067717 2.953742
v 2.600000 4.557968 1.969083
v 2.600000 3.634089 1.586400
v 1.400000 4.557968 1.969083
v 1.400000 3.634089 1.586400
v 1.400000 3.991597 3.336425
v 1.400000 3.067717 2.953742
v 1.400000 4.557968 1.969083
v 1.400000 3.991597 3.336425
v 2.600000 4.557968 1.969083
v 2.600000 3.991597 3.336425
v 1.400000 3.067717 2.953742
v 1.400000 3.634089 1.586400
v 2.600000 3.067717 2.953742
v 2.600000 3.634089 1.586400
v 1.400000 3.991597 3.336425
v 1.400000 3.067717 2.953742
v 2.600000 3.991597 3.336425
v 2.600000 3.067717 2.953742
v 2.600000 4.557968 1.969083
v 2.600000 3.634089 1.586400
v 1.400000 4.557968 1.969083
v 1.400000 3.634089 1.586400
v 2.001000 9.264277 4.979245
v 2.001000 -1.822280 0.387042
v 2.001000 12.126750 -1.931375
v 2.001000 1.040193 -6.523578
v 2.000000 12.126750 -1.931375
v 2.000000 1.040193 -6.523578
v 2.000000 9.264277 4.979245
v 2.000000 -1.822280 0.387042
v 2.000000 12.126750 -1.931375
v 2.000000 9.264277 4.979245
v 2.001000 12.126750 -1.931375
v 2.001000 9.264277 4.979245
v 2.000000 -1.822280 0.387042
v 2.000000 1.040193 -6.523578
v 2.001000 -1.822280 0.387042
v 2.001000 1.040193 -6.523578
v 2.000000 9.264277 4.979245
v 2.000000 -1.822280 0.387042
v 2.001000 9.264277 4.979245
v 2.001000 -1.822280 0.387042
v 2.001000 12.126750 -1.931375
v 2.001000 1.040193 -6.523578
v 2.000000 12.126750 -1.931375
v 2.000000 1.040193 -6.523578
v 8.000000 3.721923 2.683526
v 8.000000 3.720999 2.683144
v 8.000000 6.584395 -4.227094
v 8.000000 6.583471 -4.227477
v -4.000000 6.584395 -4.227094
v -4.000000 6.583471 -4.227477
v -4.000000 3.721923 2.683526
v -4.000000 3.720999 2.683144
v -4.000000 6.584395 -4.227094
v -4.000000 3.721923 2.683526
v 8.000000 6.584395 -4.227094
v 8.000000 3.721923 2.683526
v -4.000000 3.720999 2.683144
v -4.000000 6.583471 -4.227477
v 8.000000 3.720999 2.683144
v 8.000000 6.583471 -4.227477
v -4.000000 3.721923 2.683526
v -4.000000 3.720999 2.683144
v 8.000000 3.721923 2.683526
v 8.000000 3.720999 2.683144
v 8.000000 6.584395 -4.227094
v 8.000000 6.583471 -4.227477
v -4.000000 6.584395 -4.227094
v -4.000000 6.583471 -4.227477
v 2.500000 3.882684 3.173880
v 2.500000 -1.660594 5.469981
v 2.500000 3.500001 2.250000
v 2.500000 -2.043277 4.546102
v 1.500000 3.500001 2.250000
v 1.500000 -2.043277 4.546102
v 1.500000 3.882684 3.173880
v 1.500000 -1.660594 5.469981
v 1.500000 3.500001 2.250000
v 1.500000 3.882684 3.173880
v 2.500000 3.500001 2.250000
v 2.500000 3.882684 3.173880
v 1.500000 -1.660594 5.469981
v 1.500000 -2.043277 4.546102
v 2.500000 -1.660594 5.469981
v 2.500000 -2.043277 4.546102
v 1.500000 3.882684 3.173880
v 1.500000 -1.660594 5.469981
v 2.500000 3.882684 3.173880
v 2.500000 -1.660594 5.469981
v 2.500000 3.500001 2.250000
v 2.500000 -2.043277 4.546102
v 1.500000 3.500001 2.250000
v 1.500000 -2.043277 4.546102
v 9.000000 13.054456 -1.557931
v 9.000000 0.120141 -6.915501
v -5.000000 13.054456 -1.557931
v -5.000000 0.120141 -6.915501
v 9.000000 13.054073 -1.557007
v 9.000000 0.119758 -6.914576
v 9.000000 13.054456 -1.557931
v 9.000000 0.120141 -6.915501
v -5.000000 13.054456 -1.557931
v -5.000000 0.120141 -6.915501
v -5.000000 13.054073 -1.557007
v -5.000000 0.119758 -6.914576
v -5.000000 13.054456 -1.557931
v -5.000000 13.054073 -1.557007
v 9.000000 13.054456 -1.557931
v 9.000000 13.054073 -1.557007
v -5.000000 0.119758 -6.914576
v -5.000000 0.120141 -6.915501
v 9.000000 0.119758 -6.914576
v 9.000000 0.120141 -6.915501
v -5.000000 13.054073 -1.557007
v -5.000000 0.119758 -6.914576
v 9.000000 13.054073 -1.557007
v 9.000000 0.119758 -6.914576
v -2.528428 -0.750000 2.042253
v -2.528428 -1.250000 2.042253
v -2.432757 -0.750000 1.811283
v -2.432757 -1.250000 1.811283
v -2.663727 -0.750000 1.715612
v -2.663727 -1.250000 1.715612
v -2.759398 -0.750000 1.946582
v -2.759398 -1.250000 1.946582
v -2.663727 -0.750000 1.715612
v -2.759398 -0.750000 1.946582
v -2.432757 -0.750000 1.811283
v -2.528428 -0.750000 2.042253
v -2.759398 -1.250000 1.946582
v -2.663727 -1.250000 1.715612
v -2.528428 -1.250000 2.042253
v -2.432757 -1.250000 1.811283
v -2.759398 -0.750000 1.946582
v -2.759398 -1.250000 1.946582
v -2.528428 -0.750000 2.042253
v -2.528428 -1.250000 2.042253
v -2.432757 -0.750000 1.811283
v -2.432757 -1.250000 1.811283
v -2.663727 -0.750000 1.715612
v -2.663727 -1.250000 1.715612
v -2.348800 1.000000 2.489864
v -2.348800 -0.750000 2.489864
v -1.966116 1.000000 1.565985
v -1.966116 -0.750000 1.565985
v -2.889996 1.000000 1.183301
v -2.889996 -0.750000 1.183301
v -3.272679 1.000000 2.107181
v -3.272679 -0.750000 2.107181
v -2.889996 1.000000 1.183301
v -3.272679 1.000000 2.107181
v -1.966116 1.000000 1.565985
v -2.348800 1.000000 2.489864
v -3.272679 -0.750000 2.107181
v -2.889996 -0.750000 1.183301
v -2.348800 -0.750000 2.489864
v -1.966116 -0.750000 1.565985
v -3.272679 1.000000 2.107181
v -3.272679 -0.750000 2.107181
v -2.348800 1.000000 2.489864
v -2.348800 -0.750000 2.489864
v -1.966116 1.000000 1.565985
v -1.966116 -0.750000 1.565985
v -2.889996 1.000000 1.183301
v -2.889996 -0.750000 1.183301
v 2.039628 0.750000 4.307611
v 2.039628 0.250000 4.307611
v 2.422312 0.750000 3.383731
v 2.422312 0.250000 3.383731
v -1.966116 0.750000 1.565985
v -1.966116 0.250000 1.565985
v -2.348800 0.750000 2.489864
v -2.348800 0.250000 2.489864
v -1.966116 0.750000 1.565985
v -2.348800 0.750000 2.489864
v 2.422312 0.750000 3.383731
v 2.039628 0.750000 4.307611
v -2.348800 0.250000 2.489864
v -1.966116 0.250000 1.565985
v 2.039628 0.250000 4.307611
v 2.422312 0.250000 3.383731
v -2.348800 0.750000 2.489864
v -2.348800 0.250000 2.489864
v 2.039628 0.750000 4.307611
v 2.039628 0.250000 4.307611
v 2.422312 0.750000 3.383731
v 2.422312 0.250000 3.383731
v -1.966116 0.750000 1.565985
v -1.966116 0.250000 1.565985
v -5.000000 -1.249000 -5.000002
v -5.000000 -1.249000 4.000000
v 4.000000 -1.249000 -5.000002
v 4.000000 -1.249000 4.000000
v 4.000000 -1.249000 4.000000
v 4.000000 -1.250000 4.000000
v 4.000000 -1.249000 -5.000002
v 4.000000 -1.250000 -5.000002
v -5.000000 -1.249000 -5.000002
v -5.000000 -1.250000 -5.000002
v -5.000000 -1.249000 4.000000
v -5.000000 -1.250000 4.000000
v -5.000000 -1.250000 4.000000
v -5.000000 -1.250000 -5.000002
v 4.000000 -1.250000 4.000000
v 4.000000 -1.250000 -5.000002
v -5.000000 -1.249000 4.000000
v -5.000000 -1.250000 4.000000
v 4.000000 -1.249000 4.000000
v 4.000000 -1.250000 4.000000
v 4.000000 -1.249000 -5.000002
v 4.000000 -1.250000 -5.000002
v -5.000000 -1.249000 -5.000002
v -5.000000 -1.250000 -5.000002
v -5.750000 -3.000001 5.750001
v -5.750000 -3.000001 -5.750002
v 5.750000 -3.000001 5.750001
v 5.750000 -3.000001 -5.750002
v 5.750000 -1.500000 5.750001
v 5.750000 -3.000001 5.750001
v 5.750000 -1.500000 -5.750002
v 5.750000 -3.000001 -5.750002
v -5.750000 -1.500000 -5.750002
v -5.750000 -3.000001 -5.750002
v -5.750000 -1.500000 5.750001
v -5.750000 -3.000001 5.750001
v -5.750000 -1.500000 -5.750002
v -5.750000 -1.500000 5.750001
v 5.750000 -1.500000 -5.750002
v 5.750000 -1.500000 5.750001
v -5.750000 -1.500000 5.750001
v -5.750000 -3.000001 5.750001
v 5.750000 -1.500000 5.750001
v 5.750000 -3.000001 5.750001
v 5.750000 -1.500000 -5.750002
v 5.750000 -3.000001 -5.750002
v -5.750000 -1.500000 -5.750002
v -5.750000 -3.000001 -5.750002
v -6.000000 -6.500001 -6.000003
v -6.000000 -6.500001 6.000000
v 6.000000 -6.500001 -6.000003
v 6.000000 -6.500001 6.000000
vt 0.000000 0.000000
vt 0.000000 0.093750
vt 0.750000 0.000000
vt 0.750000 0.093750
vt 0.000000 0.000000
vt 0.000000 0.093750
vt 0.750000 0.000000
vt 0.750000 0.093750
vt 0.281250 0.093750
vt 0.281250 0.125000
vt 0.312500 0.093750
vt 0.312500 0.125000
vt 0.000000 0.000000
vt 0.000000 0.093750
vt 0.750000 0.000000
vt 0.750000 0.093750
vt 0.000000 0.000000
vt 0.000000 0.093750
vt 0.750000 0.000000
vt 0.750000 0.093750
vt 0.000000 0.093750
vt 0.000000 0.312500
vt 0.625000 0.093750
vt 0.625000 0.312500
vt 0.000000 0.093750
vt 0.000000 0.312500
vt 0.625000 0.093750
vt 0.625000 0.312500
vt 0.281250 0.093750
vt 0.281250 0.125000
vt 0.312500 0.093750
vt 0.312500 0.125000
vt 0.281250 0.093750
vt 0.281250 0.125000
vt 0.312500 0.093750
vt 0.312500 0.125000
vt 0.000000 0.093750
vt 0.000000 0.312500
vt 0.625000 0.093750
vt 0.625000 0.312500
vt 0.000000 0.093750
vt 0.000000 0.312500
vt 0.625000 0.093750
vt 0.625000 0.312500
vt 0.843750 0.000000
vt 0.843750 0.125000
vt 0.937500 0.000000
vt 0.937500 0.125000
vt 0.843750 0.000000
vt 0.843750 0.125000
vt 0.937500 0.000000
vt 0.937500 0.125000
vt 0.843750 0.000000
vt 0.843750 0.125000
vt 0.937500 0.000000
vt 0.937500 0.125000
vt 0.843750 0.000000
vt 0.843750 0.125000
vt 0.937500 0.000000
vt 0.937500 0.125000
vt 0.843750 0.000000
vt 0.843750 0.125000
vt 0.937500 0.000000
vt 0.937500 0.125000
vt 0.843750 0.000000
vt 0.843750 0.125000
vt 0.937500 0.000000
vt 0.937500 0.125000
vt 0.000000 1.000000
vt 0.375000 1.000000
vt 0.000000 0.906250
vt 0.375000 0.906250
vt 0.000000 1.000000
vt 0.375000 1.000000
vt 0.000000 0.906250
vt 0.375000 0.906250
vt 0.000000 0.937500
vt 0.031250 0.937500
vt 0.000000 0.906250
vt 0.031250 0.906250
vt 0.000000 0.937500
vt 0.031250 0.937500
vt 0.000000 0.906250
vt 0.031250 0.906250
vt 0.000000 1.000000
vt 0.375000 1.000000
vt 0.000000 0.906250
vt 0.375000 0.906250
vt 0.000000 1.000000
vt 0.375000 1.000000
vt 0.000000 0.906250
vt 0.375000 0.906250
vt 0.437500 0.437500
vt 0.437500 1.000000
vt 1.000000 0.437500
vt 1.000000 1.000000
vt 0.718750 0.750000
vt 0.718750 0.781250
vt 0.750000 0.750000
vt 0.750000 0.781250
vt 0.718750 0.750000
vt 0.718750 0.781250
vt 0.750000 0.750000
vt 0.750000 0.781250
vt 0.718750 0.750000
vt 0.718750 0.781250
vt 0.750000 0.750000
vt 0.750000 0.781250
vt 0.718750 0.750000
vt 0.718750 0.781250
vt 0.750000 0.750000
vt 0.750000 0.781250
vt 0.718750 0.750000
vt 0.718750 0.781250
vt 0.750000 0.750000
vt 0.750000 0.781250
vt 0.718750 0.750000
vt 0.718750 0.781250
vt 0.750000 0.750000
vt 0.750000 0.781250
vt 0.843750 0.000000
vt 0.843750 0.125000
vt 0.937500 0.000000
vt 0.937500 0.125000
vt 0.843750 0.000000
vt 0.843750 0.125000
vt 0.937500 0.000000
vt 0.937500 0.125000
vt 0.843750 0.000000
vt 0.843750 0.125000
vt 0.937500 0.000000
vt 0.937500 0.125000
vt 0.843750 0.000000
vt 0.843750 0.125000
vt 0.937500 0.000000
vt 0.937500 0.125000
vt 0.843750 0.000000
vt 0.843750 0.125000
vt 0.937500 0.000000
vt 0.937500 0.125000
vt 0.843750 0.000000
vt 0.843750 0.125000
vt 0.937500 0.000000
vt 0.937500 0.125000
vt 1.000000 0.000000
vt 0.937500 0.000000
vt 1.000000 0.031250
vt 0.937500 0.031250
vt 1.000000 0.000000
vt 0.937500 0.000000
vt 1.000000 0.031250
vt 0.937500 0.031250
vt 1.000000 0.000000
vt 0.937500 0.000000
vt 1.000000 0.250000
vt 0.937500 0.250000
vt 1.000000 0.000000
vt 0.937500 0.000000
vt 1.000000 0.250000
vt 0.937500 0.250000
vt 0.000000 0.781250
vt 0.000000 0.812500
vt 0.250000 0.781250
vt 0.250000 0.812500
vt 0.000000 0.781250
vt 0.000000 0.812500
vt 0.250000 0.781250
vt 0.250000 0.812500
vt 0.000000 0.312500
vt 0.000000 0.406250
vt 0.718750 0.312500
vt 0.718750 0.406250
vt 0.000000 0.312500
vt 0.000000 0.406250
vt 0.718750 0.312500
vt 0.718750 0.406250
vt 0.000000 0.406219
vt 0.000000 0.781219
vt 0.375000 0.406219
vt 0.375000 0.781219
vt 0.000000 0.312500
vt 0.000000 0.406250
vt 0.718750 0.312500
vt 0.718750 0.406250
vt 0.000000 0.312500
vt 0.000000 0.406250
vt 0.718750 0.312500
vt 0.718750 0.406250
vt 1.000000 0.375000
vt 1.000000 0.843750
vt 0.656250 0.375000
vt 0.656250 0.843750
vt 0.656250 0.375000
vt 0.656250 0.843750
vt 1.000000 0.375000
vt 1.000000 0.843750
vt 0.125000 0.125000
vt 0.125000 0.125000
vt 0.125000 0.125000
vt 0.125000 0.125000
vt 0.125000 0.125000
vt 0.125000 0.125000
vt 0.125000 0.125000
vt 0.125000 0.125000
vt 0.125000 0.125000
vt 0.125000 0.125000
vt 0.125000 0.125000
vt 0.125000 0.125000
vt 0.125000 0.125000
vt 0.125000 0.125000
vt 0.125000 0.125000
vt 0.125000 0.125000
vt 0.125000 0.125000
vt 0.125000 0.125000
vt 0.125000 0.125000
vt 0.125000 0.125000
vt 0.125000 0.125000
vt 0.125000 0.125000
vt 0.125000 0.125000
vt 0.125000 0.125000
vt 0.531250 0.000000
vt 0.531250 0.343750
vt 1.000000 0.000000
vt 1.000000 0.343750
vt 0.531250 0.343750
vt 0.531250 0.000000
vt 1.000000 0.343750
vt 1.000000 0.000000
vt 0.125000 0.125000
vt 0.125000 0.125000
vt 0.125000 0.125000
vt 0.125000 0.125000
vt 0.125000 0.125000
vt 0.125000 0.125000
vt 0.125000 0.125000
vt 0.125000 0.125000
vt 0.125000 0.125000
vt 0.125000 0.125000
vt 0.125000 0.125000
vt 0.125000 0.125000
vt 0.125000 0.125000
vt 0.125000 0.125000
vt 0.125000 0.125000
vt 0.125000 0.125000
vt 0.125000 0.125000
vt 0.125000 0.125000
vt 0.125000 0.125000
vt 0.125000 0.125000
vt 0.125000 0.125000
vt 0.125000 0.125000
vt 0.125000 0.125000
vt 0.125000 0.125000
vt 0.093750 0.437500
vt 0.093750 1.000000
vt 0.656250 0.437500
vt 0.656250 1.000000
vt 0.125000 0.125000
vt 0.125000 0.125000
vt 0.125000 0.125000
vt 0.125000 0.125000
vt 0.125000 0.125000
vt 0.125000 0.125000
vt 0.125000 0.125000
vt 0.125000 0.125000
vt 0.125000 0.125000
vt 0.125000 0.125000
vt 0.125000 0.125000
vt 0.125000 0.125000
vt 0.125000 0.125000
vt 0.125000 0.125000
vt 0.125000 0.125000
vt 0.125000 0.125000
vt 0.125000 0.125000
vt 0.125000 0.125000
vt 0.125000 0.125000
vt 0.125000 0.125000
vt 0.000000 0.000000
vt 0.000000 0.375000
vt 0.375000 0.000000
vt 0.375000 0.375000
vt 0.000000 0.000000
vt 0.000000 0.375000
vt 0.375000 0.000000
vt 0.375000 0.375000
vt 0.000000 0.000000
vt 0.000000 0.250000
vt 1.000000 0.000000
vt 1.000000 0.250000
vn 1.0000 0.0000 0.0000
vn -1.0000 0.0000 0.0000
vn 0.0000 -1.0000 0.0000
vn 0.0000 0.0000 1.0000
vn 0.0000 0.0000 -1.0000
vn 0.0000 1.0000 0.0000
vn 0.0000 0.9239 0.3827
vn 0.0000 -0.9239 -0.3827
vn 0.0000 -0.3827 0.9239
vn 0.0000 0.3827 -0.9239
vn 0.0000 0.9239 -0.3827
vn 0.0000 -0.9239 0.3827
vn 0.0000 0.3827 0.9239
vn 0.0000 -0.3827 -0.9239
vn 0.9239 0.0000 0.3827
vn -0.9239 0.0000 -0.3827
vn -0.3827 0.0000 0.9239
vn 0.3827 0.0000 -0.9239
vn 0.0000 -0.3826 0.9239
vn 0.0000 -0.3828 0.9238
vn 0.0000 0.3828 -0.9238
vn 0.0000 0.3826 -0.9239
vn -1.0000 0.0005 0.0000
vn -1.0000 -0.0003 0.0000
vn 0.0000 -0.3829 0.9238
vn 0.0000 -0.3825 0.9240
vn 0.0000 0.3831 -0.9237
vn 1.0000 -0.0005 0.0000
vn 0.0000 0.9243 0.3816
vn 0.0000 0.9236 0.3834
vn 0.0000 -0.9241 -0.3822
g Object_30_Object_15_gramophone.png
usemtl gramophone.png
s off
f 1/1/1 2/2/1 3/3/1
f 2/2/1 4/4/1 3/3/1
f 5/5/2 6/6/2 7/7/2
f 6/6/2 8/8/2 7/7/2
f 9/9/3 10/10/3 11/11/3
f 10/10/3 12/12/3 11/11/3
f 13/13/4 14/14/4 15/15/4
f 14/14/4 16/16/4 15/15/4
f 17/17/5 18/18/5 19/19/5
f 18/18/5 20/20/5 19/19/5
f 21/21/1 22/22/1 23/23/1
f 22/22/1 24/24/1 23/23/1
f 25/25/2 26/26/2 27/27/2
f 26/26/2 28/28/2 27/27/2
f 29/29/6 30/30/6 31/31/6
f 30/30/6 32/32/6 31/31/6
f 33/33/3 34/34/3 35/35/3
f 34/34/3 36/36/3 35/35/3
f 37/37/4 38/38/4 39/39/4
f 38/38/4 40/40/4 39/39/4
f 41/41/5 42/42/5 43/43/5
f 42/42/5 44/44/5 43/43/5
f 45/45/1 46/46/1 47/47/1
f 46/46/1 48/48/1 47/47/1
f 49/49/2 50/50/2 51/51/2
f 50/50/2 52/52/2 51/51/2
f 53/53/7 54/54/7 55/55/7
f 54/54/7 56/56/7 55/55/7
f 57/57/8 58/58/8 59/59/8
f 58/58/8 60/60/8 59/59/8
f 61/61/9 62/62/9 63/63/9
f 62/62/9 64/64/9 63/63/9
f 65/65/10 66/66/10 67/67/10
f 66/66/10 68/68/10 67/67/10
f 117/69/1 118/70/1 119/71/1
f 118/70/1 120/72/1 119/71/1
f 121/73/2 122/74/2 123/75/2
f 122/74/2 124/76/2 123/75/2
f 125/77/11 126/78/11 127/79/11
f 126/78/11 128/80/11 127/79/11
f 129/81/12 130/82/12 131/83/12
f 130/82/12 132/84/12 131/83/12
f 133/85/13 134/86/13 135/87/13
f 134/86/13 136/88/13 135/87/13
f 137/89/14 138/90/14 139/91/14
f 138/90/14 140/92/14 139/91/14
f 141/93/10 142/94/10 143/95/10
f 142/94/10 144/96/10 143/95/10
f 165/97/15 166/98/15 167/99/15
f 166/98/15 168/100/15 167/99/15
f 169/101/16 170/102/16 171/103/16
f 170/102/16 172/104/16 171/103/16
f 173/105/6 174/106/6 175/107/6
f 174/106/6 176/108/6 175/107/6
f 177/109/3 178/110/3 179/111/3
f 178/110/3 180/112/3 179/111/3
f 181/113/17 182/114/17 183/115/17
f 182/114/17 184/116/17 183/115/17
f 185/117/18 186/118/18 187/119/18
f 186/118/18 188/120/18 187/119/18
f 189/121/15 190/122/15 191/123/15
f 190/122/15 192/124/15 191/123/15
f 193/125/16 194/126/16 195/127/16
f 194/126/16 196/128/16 195/127/16
f 197/129/6 198/130/6 199/131/6
f 198/130/6 200/132/6 199/131/6
f 201/133/3 202/134/3 203/135/3
f 202/134/3 204/136/3 203/135/3
f 205/137/17 206/138/17 207/139/17
f 206/138/17 208/140/17 207/139/17
f 209/141/18 210/142/18 211/143/18
f 210/142/18 212/144/18 211/143/18
f 213/145/15 214/146/15 215/147/15
f 214/146/15 216/148/15 215/147/15
f 217/149/16 218/150/16 219/151/16
f 218/150/16 220/152/16 219/151/16
f 221/153/6 222/154/6 223/155/6
f 222/154/6 224/156/6 223/155/6
f 225/157/3 226/158/3 227/159/3
f 226/158/3 228/160/3 227/159/3
f 229/161/17 230/162/17 231/163/17
f 230/162/17 232/164/17 231/163/17
f 233/165/18 234/166/18 235/167/18
f 234/166/18 236/168/18 235/167/18
f 265/169/1 266/170/1 267/171/1
f 266/170/1 268/172/1 267/171/1
f 269/173/2 270/174/2 271/175/2
f 270/174/2 272/176/2 271/175/2
f 273/177/6 274/178/6 275/179/6
f 274/178/6 276/180/6 275/179/6
f 277/181/4 278/182/4 279/183/4
f 278/182/4 280/184/4 279/183/4
f 281/185/5 282/186/5 283/187/5
f 282/186/5 284/188/5 283/187/5
g Object_30_Object_15_texture
usemtl texture
f 69/189/1 70/190/1 71/191/1
f 70/190/1 72/192/1 71/191/1
f 73/193/2 74/194/2 75/195/2
f 74/194/2 76/196/2 75/195/2
f 77/197/7 78/198/7 79/199/7
f 78/198/7 80/200/7 79/199/7
f 81/201/8 82/202/8 83/203/8
f 82/202/8 84/204/8 83/203/8
f 85/205/19 86/206/19 87/207/19
f 86/206/20 88/208/20 87/207/20
f 89/209/21 90/210/21 91/211/21
f 90/210/22 92/212/22 91/211/22
f 93/213/1 94/214/1 95/215/1
f 94/214/1 96/216/1 95/215/1
f 97/217/23 98/218/23 99/219/23
f 98/218/24 100/220/24 99/219/24
f 101/221/7 102/222/7 103/223/7
f 102/222/7 104/224/7 103/223/7
f 105/225/8 106/226/8 107/227/8
f 106/226/8 108/228/8 107/227/8
f 109/229/25 110/230/25 111/231/25
f 110/230/26 112/232/26 111/231/26
f 113/233/10 114/234/10 115/235/10
f 114/234/27 116/236/27 115/235/27
f 145/237/1 146/238/1 147/239/1
f 146/238/28 148/240/28 147/239/28
f 149/241/2 150/242/2 151/243/2
f 150/242/2 152/244/2 151/243/2
f 153/245/29 154/246/29 155/247/29
f 154/246/30 156/248/30 155/247/30
f 157/249/31 158/250/31 159/251/31
f 158/250/31 160/252/31 159/251/31
f 161/253/9 162/254/9 163/255/9
f 162/254/9 164/256/9 163/255/9
f 241/257/1 242/258/1 243/259/1
f 242/258/1 244/260/1 243/259/1
f 245/261/2 246/262/2 247/263/2
f 246/262/2 248/264/2 247/263/2
f 249/265/3 250/266/3 251/267/3
f 250/266/3 252/268/3 251/267/3
f 253/269/4 254/270/4 255/271/4
f 254/270/4 256/272/4 255/271/4
f 257/273/5 258/274/5 259/275/5
f 258/274/5 260/276/5 259/275/5
f 261/277/3 262/278/3 263/279/3
f 262/278/3 264/280/3 263/279/3
f 285/281/6 286/282/6 287/283/6
f 286/282/6 288/284/6 287/283/6
g Object_30_Object_15_texture_0
usemtl texture_0
f 237/285/6 238/286/6 239/287/6
f 238/286/6 240/288/6 239/287/6
