# Blender v2.93.3 OBJ File: ''
# www.blender.org
mtllib interior_decor_mug.mtl
o Object_12_Object_4
v 3.000000 -6.000001 3.000000
v 3.000000 -7.500002 3.000000
v 3.000000 -6.000001 -3.000001
v 3.000000 -7.500002 -3.000001
v -3.000000 -6.000001 -3.000001
v -3.000000 -7.500002 -3.000001
v -3.000000 -6.000001 3.000000
v -3.000000 -7.500002 3.000000
v -3.000000 -6.000001 -3.000001
v -3.000000 -6.000001 3.000000
v 3.000000 -6.000001 -3.000001
v 3.000000 -6.000001 3.000000
v -3.000000 -7.500002 3.000000
v -3.000000 -7.500002 -3.000001
v 3.000000 -7.500002 3.000000
v 3.000000 -7.500002 -3.000001
v -3.000000 -6.000001 3.000000
v -3.000000 -7.500002 3.000000
v 3.000000 -6.000001 3.000000
v 3.000000 -7.500002 3.000000
v 3.000000 -6.000001 -3.000001
v 3.000000 -7.500002 -3.000001
v -3.000000 -6.000001 -3.000001
v -3.000000 -7.500002 -3.000001
v -4.750000 -1.500000 0.739999
v -4.750000 -6.750002 0.739999
v -4.750000 -1.500000 -0.740000
v -4.750000 -6.750002 -0.740000
v -5.500000 -1.500000 -0.740000
v -5.500000 -6.750002 -0.740000
v -5.500000 -1.500000 0.739999
v -5.500000 -6.750002 0.739999
v -5.500000 -1.500000 -0.740000
v -5.500000 -1.500000 0.739999
v -4.750000 -1.500000 -0.740000
v -4.750000 -1.500000 0.739999
v -5.500000 -6.750002 0.739999
v -5.500000 -6.750002 -0.740000
v -4.750000 -6.750002 0.739999
v -4.750000 -6.750002 -0.740000
v -5.500000 -1.500000 0.739999
v -5.500000 -6.750002 0.739999
v -4.750000 -1.500000 0.739999
v -4.750000 -6.750002 0.739999
v -4.750000 -1.500000 -0.740000
v -4.750000 -6.750002 -0.740000
v -5.500000 -1.500000 -0.740000
v -5.500000 -6.750002 -0.740000
v -3.000000 -1.000000 0.750000
v -3.000000 -2.000000 0.750000
v -3.000000 -1.000000 -0.750001
v -3.000000 -2.000000 -0.750001
v -5.000000 -1.000000 -0.750001
v -5.000000 -2.000000 -0.750001
v -5.000000 -1.000000 0.750000
v -5.000000 -2.000000 0.750000
v -5.000000 -1.000000 -0.750001
v -5.000000 -1.000000 0.750000
v -3.000000 -1.000000 -0.750001
v -3.000000 -1.000000 0.750000
v -5.000000 -2.000000 0.750000
v -5.000000 -2.000000 -0.750001
v -3.000000 -2.000000 0.750000
v -3.000000 -2.000000 -0.750001
v -5.000000 -1.000000 0.750000
v -5.000000 -2.000000 0.750000
v -3.000000 -1.000000 0.750000
v -3.000000 -2.000000 0.750000
v -3.000000 -1.000000 -0.750001
v -3.000000 -2.000000 -0.750001
v -5.000000 -1.000000 -0.750001
v -5.000000 -2.000000 -0.750001
v -3.000000 -6.250001 0.750000
v -3.000000 -7.000002 0.750000
v -3.000000 -6.250001 -0.750001
v -3.000000 -7.000002 -0.750001
v -5.000000 -6.250001 -0.750001
v -5.000000 -7.000002 -0.750001
v -5.000000 -6.250001 0.750000
v -5.000000 -7.000002 0.750000
v -5.000000 -6.250001 -0.750001
v -5.000000 -6.250001 0.750000
v -3.000000 -6.250001 -0.750001
v -3.000000 -6.250001 0.750000
v -5.000000 -7.000002 0.750000
v -5.000000 -7.000002 -0.750001
v -3.000000 -7.000002 0.750000
v -3.000000 -7.000002 -0.750001
v -5.000000 -6.250001 0.750000
v -5.000000 -7.000002 0.750000
v -3.000000 -6.250001 0.750000
v -3.000000 -7.000002 0.750000
v -3.000000 -6.250001 -0.750001
v -3.000000 -7.000002 -0.750001
v -5.000000 -6.250001 -0.750001
v -5.000000 -7.000002 -0.750001
v 2.750000 -0.000000 2.749999
v 2.750000 -8.000002 2.749999
v 2.750000 -0.000000 -2.750002
v 2.750000 -8.000002 -2.750002
v -2.750000 -0.000000 -2.750002
v -2.750000 -8.000002 -2.750002
v -2.750000 -0.000000 2.749999
v -2.750000 -8.000002 2.749999
v -2.750000 -0.000000 -2.750002
v -2.750000 -0.000000 2.749999
v 2.750000 -0.000000 -2.750002
v 2.750000 -0.000000 2.749999
v -2.750000 -8.000002 2.749999
v -2.750000 -8.000002 -2.750002
v 2.750000 -8.000002 2.749999
v 2.750000 -8.000002 -2.750002
v -2.750000 -0.000000 2.749999
v -2.750000 -8.000002 2.749999
v 2.750000 -0.000000 2.749999
v 2.750000 -8.000002 2.749999
v 2.750000 -0.000000 -2.750002
v 2.750000 -8.000002 -2.750002
v -2.750000 -0.000000 -2.750002
v -2.750000 -8.000002 -2.750002
v 3.000000 -0.500000 2.999999
v 3.000000 -2.000000 2.999999
v 3.000000 -0.500000 -3.000002
v 3.000000 -2.000000 -3.000002
v -3.000000 -0.500000 -3.000002
v -3.000000 -2.000000 -3.000002
v -3.000000 -0.500000 2.999999
v -3.000000 -2.000000 2.999999
v -3.000000 -0.500000 -3.000002
v -3.000000 -0.500000 2.999999
v 3.000000 -0.500000 -3.000002
v 3.000000 -0.500000 2.999999
v -3.000000 -2.000000 2.999999
v -3.000000 -2.000000 -3.000002
v 3.000000 -2.000000 2.999999
v 3.000000 -2.000000 -3.000002
v -3.000000 -0.500000 2.999999
v -3.000000 -2.000000 2.999999
v 3.000000 -0.500000 2.999999
v 3.000000 -2.000000 2.999999
v 3.000000 -0.500000 -3.000002
v 3.000000 -2.000000 -3.000002
v -3.000000 -0.500000 -3.000002
v -3.000000 -2.000000 -3.000002
vt 0.000000 1.000000
vt 0.000000 0.812500
vt 0.562500 1.000000
vt 0.562500 0.812500
vt 0.000000 1.000000
vt 0.000000 0.812500
vt 0.562500 1.000000
vt 0.562500 0.812500
vt 0.125000 0.812500
vt 0.125000 0.875000
vt 0.187500 0.812500
vt 0.187500 0.875000
vt 0.125000 0.875000
vt 0.125000 0.937500
vt 0.187500 0.875000
vt 0.187500 0.937500
vt 0.000000 1.000000
vt 0.000000 0.812500
vt 0.562500 1.000000
vt 0.562500 0.812500
vt 0.000000 1.000000
vt 0.000000 0.812500
vt 0.562500 1.000000
vt 0.562500 0.812500
vt 0.187500 0.250000
vt 0.187500 0.687500
vt 0.312500 0.250000
vt 0.312500 0.687500
vt 0.187500 0.250000
vt 0.187500 0.687500
vt 0.312500 0.250000
vt 0.312500 0.687500
vt 0.250000 0.437500
vt 0.250000 0.562500
vt 0.312500 0.437500
vt 0.312500 0.562500
vt 0.250000 0.312500
vt 0.250000 0.437500
vt 0.312500 0.312500
vt 0.312500 0.437500
vt 0.250000 0.250000
vt 0.250000 0.687500
vt 0.312500 0.250000
vt 0.312500 0.687500
vt 0.250000 0.250000
vt 0.250000 0.687500
vt 0.312500 0.250000
vt 0.312500 0.687500
vt 0.187500 0.312500
vt 0.187500 0.375000
vt 0.312500 0.312500
vt 0.312500 0.375000
vt 0.187500 0.875000
vt 0.187500 0.937500
vt 0.312500 0.875000
vt 0.312500 0.937500
vt 0.562500 0.500000
vt 0.562500 0.625000
vt 0.375000 0.500000
vt 0.375000 0.625000
vt 0.562500 0.500000
vt 0.562500 0.625000
vt 0.375000 0.500000
vt 0.375000 0.625000
vt 0.562500 0.500000
vt 0.562500 0.593750
vt 0.375000 0.500000
vt 0.375000 0.593750
vt 0.375000 0.500000
vt 0.375000 0.593750
vt 0.562500 0.500000
vt 0.562500 0.593750
vt 0.187500 0.312500
vt 0.187500 0.375000
vt 0.312500 0.312500
vt 0.312500 0.375000
vt 0.250000 0.875000
vt 0.250000 0.937500
vt 0.375000 0.875000
vt 0.375000 0.937500
vt 0.562500 0.500000
vt 0.562500 0.625000
vt 0.375000 0.500000
vt 0.375000 0.625000
vt 0.562500 0.500000
vt 0.562500 0.625000
vt 0.375000 0.500000
vt 0.375000 0.625000
vt 0.562500 0.562500
vt 0.562500 0.625000
vt 0.375000 0.562500
vt 0.375000 0.625000
vt 0.375000 0.562500
vt 0.375000 0.625000
vt 0.562500 0.562500
vt 0.562500 0.625000
vt 0.000000 0.000000
vt 0.000000 0.750000
vt 0.500000 0.000000
vt 0.500000 0.750000
vt 0.000000 0.000000
vt 0.000000 0.750000
vt 0.500000 0.000000
vt 0.500000 0.750000
vt 0.500000 0.000000
vt 0.500000 0.500000
vt 1.000000 0.000000
vt 1.000000 0.500000
vt 0.500000 0.000000
vt 0.500000 0.500000
vt 1.000000 0.000000
vt 1.000000 0.500000
vt 0.000000 0.000000
vt 0.000000 0.750000
vt 0.500000 0.000000
vt 0.500000 0.750000
vt 0.000000 0.000000
vt 0.000000 0.750000
vt 0.500000 0.000000
vt 0.500000 0.750000
vt 0.000000 0.812500
vt 0.000000 1.000000
vt 0.562500 0.812500
vt 0.562500 1.000000
vt 0.000000 0.812500
vt 0.000000 1.000000
vt 0.562500 0.812500
vt 0.562500 1.000000
vt 0.125000 0.812500
vt 0.125000 0.875000
vt 0.187500 0.812500
vt 0.187500 0.875000
vt 0.125000 0.875000
vt 0.125000 0.937500
vt 0.187500 0.875000
vt 0.187500 0.937500
vt 0.000000 0.812500
vt 0.000000 1.000000
vt 0.562500 0.812500
vt 0.562500 1.000000
vt 0.000000 0.812500
vt 0.000000 1.000000
vt 0.562500 0.812500
vt 0.562500 1.000000
vn 1.0000 0.0000 0.0000
vn -1.0000 0.0000 0.0000
vn 0.0000 1.0000 0.0000
vn 0.0000 -1.0000 0.0000
vn 0.0000 0.0000 1.0000
vn 0.0000 0.0000 -1.0000
usemtl barrel_mug.png
s off
f 1/1/1 2/2/1 3/3/1
f 2/2/1 4/4/1 3/3/1
f 5/5/2 6/6/2 7/7/2
f 6/6/2 8/8/2 7/7/2
f 9/9/3 10/10/3 11/11/3
f 10/10/3 12/12/3 11/11/3
f 13/13/4 14/14/4 15/15/4
f 14/14/4 16/16/4 15/15/4
f 17/17/5 18/18/5 19/19/5
f 18/18/5 20/20/5 19/19/5
f 21/21/6 22/22/6 23/23/6
f 22/22/6 24/24/6 23/23/6
f 25/25/1 26/26/1 27/27/1
f 26/26/1 28/28/1 27/27/1
f 29/29/2 30/30/2 31/31/2
f 30/30/2 32/32/2 31/31/2
f 33/33/3 34/34/3 35/35/3
f 34/34/3 36/36/3 35/35/3
f 37/37/4 38/38/4 39/39/4
f 38/38/4 40/40/4 39/39/4
f 41/41/5 42/42/5 43/43/5
f 42/42/5 44/44/5 43/43/5
f 45/45/6 46/46/6 47/47/6
f 46/46/6 48/48/6 47/47/6
f 49/49/1 50/50/1 51/51/1
f 50/50/1 52/52/1 51/51/1
f 53/53/2 54/54/2 55/55/2
f 54/54/2 56/56/2 55/55/2
f 57/57/3 58/58/3 59/59/3
f 58/58/3 60/60/3 59/59/3
f 61/61/4 62/62/4 63/63/4
f 62/62/4 64/64/4 63/63/4
f 65/65/5 66/66/5 67/67/5
f 66/66/5 68/68/5 67/67/5
f 69/69/6 70/70/6 71/71/6
f 70/70/6 72/72/6 71/71/6
f 73/73/1 74/74/1 75/75/1
f 74/74/1 76/76/1 75/75/1
f 77/77/2 78/78/2 79/79/2
f 78/78/2 80/80/2 79/79/2
f 81/81/3 82/82/3 83/83/3
f 82/82/3 84/84/3 83/83/3
f 85/85/4 86/86/4 87/87/4
f 86/86/4 88/88/4 87/87/4
f 89/89/5 90/90/5 91/91/5
f 90/90/5 92/92/5 91/91/5
f 93/93/6 94/94/6 95/95/6
f 94/94/6 96/96/6 95/95/6
f 97/97/1 98/98/1 99/99/1
f 98/98/1 100/100/1 99/99/1
f 101/101/2 102/102/2 103/103/2
f 102/102/2 104/104/2 103/103/2
f 105/105/3 106/106/3 107/107/3
f 106/106/3 108/108/3 107/107/3
f 109/109/4 110/110/4 111/111/4
f 110/110/4 112/112/4 111/111/4
f 113/113/5 114/114/5 115/115/5
f 114/114/5 116/116/5 115/115/5
f 117/117/6 118/118/6 119/119/6
f 118/118/6 120/120/6 119/119/6
f 121/121/1 122/122/1 123/123/1
f 122/122/1 124/124/1 123/123/1
f 125/125/2 126/126/2 127/127/2
f 126/126/2 128/128/2 127/127/2
f 129/129/3 130/130/3 131/131/3
f 130/130/3 132/132/3 131/131/3
f 133/133/4 134/134/4 135/135/4
f 134/134/4 136/136/4 135/135/4
f 137/137/5 138/138/5 139/139/5
f 138/138/5 140/140/5 139/139/5
f 141/141/6 142/142/6 143/143/6
f 142/142/6 144/144/6 143/143/6
